HIERARCHY
ROOT SpineBase
{
  OFFSET 0.000000 0.000000 0.000000
  CHANNELS 6 Xposition Yposition Zposition Zrotation Xrotation Yrotation
  JOINT SpineMid
  {
    OFFSET 0.000000 29.538759 0.000000
    CHANNELS 3 Zrotation Xrotation Yrotation
    JOINT SpineShoulder
    {
      OFFSET -0.040023 21.965116 -0.817408
      CHANNELS 3 Zrotation Xrotation Yrotation
      JOINT Neck
      {
        OFFSET 0.009015 7.271415 -0.588285
        CHANNELS 3 Zrotation Xrotation Yrotation
        JOINT Head
        {
          OFFSET -4.098415 13.266017 -0.615012
          CHANNELS 3 Zrotation Xrotation Yrotation
          End Site
          {
            OFFSET 0 0 0
          }
        }
      }
      JOINT ShoulderLeft
      {
        OFFSET -16.236823 -4.562553 4.562316
        CHANNELS 3 Zrotation Xrotation Yrotation
        JOINT ElbowLeft
        {
          OFFSET -2.716398 -27.755085 4.483759
          CHANNELS 3 Zrotation Xrotation Yrotation
          JOINT WristLeft
          {
            OFFSET 0.185888 -20.793793 -3.541368
            CHANNELS 3 Zrotation Xrotation Yrotation
            JOINT HandLeft
            {
              OFFSET 0.600176 -3.542954 -0.618649
              CHANNELS 3 Zrotation Xrotation Yrotation
              JOINT HandTipLeft
              {
                OFFSET 1.002201 -5.201574 -1.241403
                CHANNELS 3 Zrotation Xrotation Yrotation
                End Site
                {
                  OFFSET 0 0 0
                }
              }
              JOINT ThumbLeft
              {
                OFFSET -2.141595 0.025936 -0.773785
                CHANNELS 3 Zrotation Xrotation Yrotation
                End Site
                {
                  OFFSET 0 0 0
                }
              }
            }
          }
        }
      }
      JOINT ShoulderRight
      {
        OFFSET 15.166961 -2.548048 -6.147000
        CHANNELS 3 Zrotation Xrotation Yrotation
        JOINT ElbowRight
        {
          OFFSET 6.088200 -24.550666 0.454072
          CHANNELS 3 Zrotation Xrotation Yrotation
          JOINT WristRight
          {
            OFFSET -2.166916 -20.248565 -6.015782
            CHANNELS 3 Zrotation Xrotation Yrotation
            JOINT HandRight
            {
              OFFSET -2.004391 -6.353799 -0.175945
              CHANNELS 3 Zrotation Xrotation Yrotation
              JOINT HandTipRight
              {
                OFFSET 0.110721 -5.909245 -0.580070
                CHANNELS 3 Zrotation Xrotation Yrotation
                End Site
                {
                  OFFSET 0 0 0
                }
              }
              JOINT ThumbRight
              {
                OFFSET 3.544243 -1.086341 -1.298884
                CHANNELS 3 Zrotation Xrotation Yrotation
                End Site
                {
                  OFFSET 0 0 0
                }
              }
            }
          }
        }
      }
    }
  }
  JOINT HipLeft
  {
    OFFSET -6.551816 0.408313 -1.412416
    CHANNELS 3 Zrotation Xrotation Yrotation
    JOINT KneeLeft
    {
      OFFSET 4.731992 -28.536246 4.426127
      CHANNELS 3 Zrotation Xrotation Yrotation
      JOINT AnkleLeft
      {
        OFFSET 4.415341 -32.404288 4.825707
        CHANNELS 3 Zrotation Xrotation Yrotation
        JOINT FootLeft
        {
          OFFSET -3.908206 -2.732675 -14.542117
          CHANNELS 3 Zrotation Xrotation Yrotation
          End Site
          {
            OFFSET 0 0 0
          }
        }
      }
    }
  }
  JOINT HipRight
  {
    OFFSET 7.299099 1.396801 -5.266247
    CHANNELS 3 Zrotation Xrotation Yrotation
    JOINT KneeRight
    {
      OFFSET 5.081653 -26.638324 3.956966
      CHANNELS 3 Zrotation Xrotation Yrotation
      JOINT AnkleRight
      {
        OFFSET 1.401121 -34.226036 7.590753
        CHANNELS 3 Zrotation Xrotation Yrotation
        JOINT FootRight
        {
          OFFSET -2.558469 -3.532737 -12.975363
          CHANNELS 3 Zrotation Xrotation Yrotation
          End Site
          {
            OFFSET 0 0 0
          }
        }
      }
    }
  }
}
MOTION
Frames: 16
Frame Time: 0.033333
-40.255277 68.064829 346.651161 -0.000000 0.000000 15.548512 0.000000 0.000000 -15.548512 -0.000000 0.000000 0.000000 -0.000000 0.000000 0.000000 0.000000 0.000000 0.000000 -0.000000 0.000000 0.000000 -0.000000 0.000000 0.000000 -0.000000 0.000000 0.000000 -0.000000 0.000000 0.000000 0.000000 0.000000 0.000000 0.000000 0.000000 0.000000 -0.000000 0.000000 0.000000 -0.000000 0.000000 0.000000 -0.000000 0.000000 0.000000 -0.000000 0.000000 0.000000 0.000000 0.000000 0.000000 0.000000 0.000000 0.000000 0.000000 0.000000 -15.548512 -0.000000 0.000000 0.000000 -0.000000 0.000000 0.000000 0.000000 0.000000 0.000000 0.000000 0.000000 -15.548512 -0.000000 0.000000 0.000000 -0.000000 0.000000 0.000000 0.000000 0.000000 0.000000
-40.272177 68.076849 346.659491 0.030562 -0.010666 15.643829 -0.026554 0.018512 -15.643822 -0.000000 0.000000 0.000000 -0.000000 0.000000 0.000000 0.000000 0.000000 0.000000 0.595519 0.641555 0.030124 0.501440 1.385306 -0.211947 -0.558719 1.840466 0.706908 6.196964 -2.252678 -1.490948 0.000000 0.000000 0.000000 0.000000 0.000000 0.000000 -0.000000 0.000000 0.000000 0.323341 -0.861685 -0.001420 -0.572835 2.817818 -0.595270 -0.289445 -2.724177 0.632691 0.000000 0.000000 0.000000 0.000000 0.000000 0.000000 -0.026554 0.018512 -15.643822 -0.000000 0.000000 0.000000 2.181201 -5.935294 -4.302225 0.000000 0.000000 0.000000 -0.026554 0.018512 -15.643822 -0.000000 0.000000 0.000000 -0.000000 0.000000 0.000000 0.000000 0.000000 0.000000
-40.286824 68.085585 346.665918 0.061152 -0.022277 15.745098 -0.052812 0.038035 -15.745068 -0.000000 0.000000 0.000000 -0.000000 0.000000 0.000000 0.000000 0.000000 0.000000 1.094590 1.235447 0.044232 0.944352 2.558837 -0.402441 -1.054869 2.991010 1.217883 9.342651 -4.393451 -1.976118 0.000000 0.000000 0.000000 0.000000 0.000000 0.000000 0.123303 0.836342 0.208757 0.479510 -2.408796 -0.206975 -1.091503 5.041843 -1.030301 -0.500756 -4.821685 1.100572 0.000000 0.000000 0.000000 0.000000 0.000000 0.000000 -0.052812 0.038035 -15.745068 -0.000000 0.000000 0.000000 4.174605 -12.957740 -9.119930 0.000000 0.000000 0.000000 -0.052812 0.038035 -15.745068 -0.000000 0.000000 0.000000 -0.000000 0.000000 0.000000 0.000000 0.000000 0.000000
-40.299217 68.091038 346.670440 0.091767 -0.034834 15.852318 -0.078762 0.058576 -15.852250 -0.000000 0.000000 0.000000 -0.000000 0.000000 0.000000 0.000000 0.000000 0.000000 1.498454 1.783197 0.044396 1.323526 3.518569 -0.562720 -1.434449 3.729619 1.588835 10.679073 -6.286379 -2.057521 0.000000 0.000000 0.000000 0.000000 0.000000 0.000000 0.200372 1.098160 0.274051 0.648377 -3.227336 -0.274818 -1.567007 6.677903 -1.314419 -0.654891 -6.299977 1.422282 0.000000 0.000000 0.000000 0.000000 0.000000 0.000000 -0.078762 0.058576 -15.852250 -0.000000 0.000000 0.000000 5.690873 -20.645961 -14.268321 0.000000 0.000000 0.000000 -0.492455 -0.721682 -16.046685 0.181924 0.864200 0.190669 0.073786 -1.140979 0.577456 0.000000 0.000000 0.000000
-40.309356 68.093208 346.673058 0.122403 -0.048334 15.965487 -0.104387 0.080138 -15.965363 -0.000000 0.000000 0.000000 -0.000000 0.000000 0.000000 0.000000 0.000000 0.000000 1.807669 2.286196 0.032350 1.636013 4.265304 -0.685683 -1.665447 4.233874 1.855928 10.731485 -7.971964 -1.991945 0.000000 0.000000 0.000000 0.000000 0.000000 0.000000 0.288454 1.256415 0.313624 0.771565 -3.787844 -0.323590 -2.006223 7.733879 -1.455999 -0.765305 -7.168685 1.612084 0.000000 0.000000 0.000000 0.000000 0.000000 0.000000 -0.104387 0.080138 -15.965363 -0.000000 0.000000 0.000000 6.496488 -28.236344 -19.464628 0.000000 0.000000 0.000000 -0.497694 -0.761458 -16.164292 0.143493 0.917811 0.195441 0.393856 -3.330974 1.097829 0.000000 0.000000 0.000000
-40.317241 68.092094 346.673773 0.153056 -0.062778 16.084603 -0.129671 0.102725 -16.084403 -0.000000 0.000000 0.000000 -0.000000 0.000000 0.000000 0.000000 0.000000 0.000000 2.022064 2.745656 0.009513 1.880739 4.801332 -0.765905 -1.726174 4.618452 2.042822 9.669491 -9.528398 -1.901704 0.000000 0.000000 0.000000 0.000000 0.000000 0.000000 0.387980 1.311073 0.327671 0.849591 -4.089735 -0.355751 -2.412378 8.217480 -1.462784 -0.839265 -7.437142 1.680845 0.000000 0.000000 0.000000 0.000000 0.000000 0.000000 -0.129671 0.102725 -16.084403 -0.000000 0.000000 0.000000 6.551416 -34.894996 -24.371244 0.000000 0.000000 0.000000 -0.425117 -0.708184 -16.258838 0.056609 0.861193 0.172448 0.945832 -6.728057 1.875831 0.000000 0.000000 0.000000
-40.324428 68.089350 346.667524 0.182592 -0.078959 16.289839 -0.153114 0.127005 -16.289543 -0.000000 0.000000 0.000000 -0.000000 0.000000 0.000000 0.000000 0.000000 0.000000 2.097078 3.381155 -0.054454 1.811333 4.645704 -0.698893 -1.359272 4.639403 2.059361 7.049791 -10.529973 -1.853684 0.000000 0.000000 0.000000 0.000000 0.000000 0.000000 0.547802 1.277511 0.320526 0.917371 -4.183779 -0.394868 -2.758573 8.180154 -1.334936 -0.797280 -8.127514 1.604646 0.000000 0.000000 0.000000 0.000000 0.000000 0.000000 -0.153114 0.127005 -16.289543 -0.000000 0.000000 0.000000 5.689550 -42.416980 -30.508304 0.000000 0.000000 0.000000 -0.153114 0.127005 -16.289543 -0.000000 0.000000 0.000000 2.253209 -13.693555 3.593682 0.000000 0.000000 0.000000
-40.329537 68.079679 346.666144 0.210932 -0.094291 16.467108 -0.175553 0.150215 -16.466704 -0.000000 0.000000 0.000000 -0.000000 0.000000 0.000000 0.000000 0.000000 0.000000 2.054061 3.875959 -0.117985 1.880476 4.366699 -0.627312 -1.279864 5.269345 2.166213 2.001812 -12.078658 -1.915083 0.000000 0.000000 0.000000 0.000000 0.000000 0.000000 0.592720 1.264507 0.317670 1.048810 -4.288888 -0.423392 -2.771390 7.364404 -1.023679 -1.657599 -6.689356 1.351393 0.000000 0.000000 0.000000 0.000000 0.000000 0.000000 -0.175553 0.150215 -16.466704 -0.000000 0.000000 0.000000 4.407325 -46.811352 -35.199863 0.000000 0.000000 0.000000 -0.175553 0.150215 -16.466704 -0.000000 0.000000 0.000000 4.348738 -22.561633 6.005071 0.000000 0.000000 0.000000
-40.331090 68.070758 346.664902 0.235667 -0.105570 16.658117 -0.195515 0.168695 -16.657612 -0.000000 0.000000 0.000000 -0.000000 0.000000 0.000000 0.000000 0.000000 0.000000 2.033815 4.226623 -0.161558 1.595741 2.893766 -0.495426 -1.082612 8.750161 2.481481 -2.896712 -17.988091 -3.072318 0.000000 0.000000 0.000000 0.000000 0.000000 0.000000 0.414575 1.644096 0.409198 1.574632 -5.245747 -0.519452 -2.455455 7.224996 -0.815001 -0.477765 -7.689208 1.082739 0.000000 0.000000 0.000000 0.000000 0.000000 0.000000 -0.195515 0.168695 -16.657612 -0.000000 0.000000 0.000000 4.075742 -47.160726 -36.308618 0.000000 0.000000 0.000000 -0.195515 0.168695 -16.657612 -0.000000 0.000000 0.000000 7.369550 -32.235854 9.152409 0.000000 0.000000 0.000000
-40.337596 68.060461 346.667068 0.262891 -0.099970 16.725364 -0.223001 0.171396 -16.724801 -0.000000 0.000000 0.000000 -0.000000 0.000000 0.000000 0.000000 0.000000 0.000000 2.002925 4.243444 -0.167397 1.863845 2.936966 -0.525603 -0.653273 13.595091 3.047369 -11.172286 -23.854179 -5.538183 0.000000 0.000000 0.000000 0.000000 0.000000 0.000000 0.840958 0.807310 0.209479 1.051299 -3.638175 -0.413160 -2.827866 6.001112 -0.595769 -0.799080 -6.330300 0.977258 0.000000 0.000000 0.000000 0.000000 0.000000 0.000000 -0.223001 0.171396 -16.724801 -0.000000 0.000000 0.000000 4.238105 -46.774597 -35.812619 0.000000 0.000000 0.000000 -0.223001 0.171396 -16.724801 -0.000000 0.000000 0.000000 13.635662 -45.268084 16.081684 0.000000 0.000000 0.000000
-40.338326 68.051157 346.664513 0.304856 -0.103120 16.568802 -0.262793 0.185772 -16.568102 -0.000000 0.000000 0.000000 -0.000000 0.000000 0.000000 0.000000 0.000000 0.000000 1.837139 3.705554 -0.126271 2.613033 6.104701 -0.747023 3.421025 7.911232 1.983149 -15.147025 -24.786084 -5.423692 0.000000 0.000000 0.000000 0.000000 0.000000 0.000000 1.537585 -0.850992 -0.170587 -0.447936 -0.146820 -0.030989 -2.654286 3.825412 -0.556259 -2.503366 -3.955806 1.029364 0.000000 0.000000 0.000000 0.000000 0.000000 0.000000 -0.262793 0.185772 -16.568102 -0.000000 0.000000 0.000000 4.559722 -45.686965 -34.831875 0.000000 0.000000 0.000000 0.916779 0.466636 -16.303501 -1.053353 -0.600596 -0.276838 13.417793 -45.018001 15.600808 0.000000 0.000000 0.000000
-40.326068 68.039124 346.653693 0.363223 -0.121223 16.182562 -0.315050 0.217647 -16.181580 -0.000000 0.000000 0.000000 -0.000000 0.000000 0.000000 0.000000 0.000000 0.000000 1.781473 2.859438 -0.036767 3.612115 11.871241 -1.242376 7.175589 -6.952152 1.576117 -19.442873 -14.520759 -1.017054 0.000000 0.000000 0.000000 0.000000 0.000000 0.000000 2.718507 -3.374789 -0.702227 -1.650595 2.549934 0.563890 -13.277160 7.260866 -0.581434 7.915994 0.555721 2.673589 0.000000 0.000000 0.000000 0.000000 0.000000 0.000000 -0.315050 0.217647 -16.181580 -0.000000 0.000000 0.000000 5.618323 -40.916371 -30.800893 0.000000 0.000000 0.000000 1.526590 0.906115 -15.741841 -1.586126 -1.161813 -0.473883 14.286062 -46.305357 16.688046 0.000000 0.000000 0.000000
-40.297815 68.028394 346.627947 0.428451 -0.163658 15.557228 -0.368865 0.272568 -15.555739 -0.000000 0.000000 0.000000 -0.000000 0.000000 0.000000 0.000000 0.000000 0.000000 1.661870 0.781627 0.181110 4.616913 20.329618 -2.098025 14.222518 -17.581187 3.607614 -25.577434 -6.095858 2.854556 0.000000 0.000000 0.000000 0.000000 0.000000 0.000000 4.139384 -6.876177 -1.368007 -5.890186 9.886073 2.182674 -16.302574 4.392581 -1.665062 13.487287 6.792940 3.533652 0.000000 0.000000 0.000000 0.000000 0.000000 0.000000 -0.368865 0.272568 -15.555739 -0.000000 0.000000 0.000000 6.364155 -33.436381 -25.020627 0.000000 0.000000 0.000000 1.426193 1.081052 -15.112240 -1.522581 -1.247994 -0.481289 7.679684 -33.110740 9.186649 0.000000 0.000000 0.000000
-40.247556 68.029218 346.593368 0.499818 -0.256391 14.793539 -0.417794 0.375505 -14.791051 -0.000000 0.000000 0.000000 -0.000000 0.000000 0.000000 0.000000 0.000000 0.000000 1.474568 -1.097310 0.359640 6.193136 32.050674 -3.437849 11.201735 -29.700515 5.514526 -19.548302 2.497381 4.137269 0.000000 0.000000 0.000000 0.000000 0.000000 0.000000 5.551593 -10.562915 -1.983101 -12.631727 19.887965 5.390926 -18.705364 6.020308 -5.018754 18.780127 9.675233 7.776881 0.000000 0.000000 0.000000 0.000000 0.000000 0.000000 -0.864111 1.290144 -14.759894 1.480117 -1.523295 0.015007 5.302326 -24.178765 -18.775846 0.000000 0.000000 0.000000 0.939262 1.569995 -14.377977 -1.018317 -1.493677 -0.449390 7.139648 -31.612616 8.694225 0.000000 0.000000 0.000000
-40.196439 68.027010 346.547463 0.596489 -0.395930 13.939376 -0.483567 0.527943 -13.935088 -0.000000 0.000000 0.000000 -0.369267 0.912433 0.268080 0.000000 0.000000 0.000000 2.851412 -0.568922 0.531438 6.007520 44.574589 -4.890315 1.478258 -49.405725 2.282197 -5.499292 13.902168 3.507805 0.000000 0.000000 0.000000 0.000000 0.000000 0.000000 6.547626 -13.342226 -2.396287 -21.294974 30.102323 10.461339 -18.256356 13.387525 -9.479283 22.477864 6.033413 15.650729 0.000000 0.000000 0.000000 0.000000 0.000000 0.000000 -1.429005 2.187619 -13.887421 2.760196 -2.566866 0.093841 3.592080 -15.672604 -13.587950 0.000000 0.000000 0.000000 0.599922 2.520976 -13.459325 -1.129876 -3.107648 -0.695974 5.057245 -21.877778 4.967380 0.000000 0.000000 0.000000
-40.113793 68.010621 346.508244 0.740399 -0.603478 12.862283 -0.098425 -0.015293 -12.834735 -0.014176 -0.049836 0.029515 -1.673564 2.066874 0.354731 0.000000 0.000000 0.000000 3.182067 1.223189 0.453961 6.788134 58.642505 -7.016071 -99.763658 -75.443432 -94.793494 13.210809 48.256533 2.180127 0.000000 0.000000 0.000000 0.000000 0.000000 0.000000 5.950076 -14.786255 -2.921143 -30.860245 39.177679 17.467301 -14.635563 20.696292 -13.583379 23.572278 1.801008 23.661965 0.000000 0.000000 0.000000 0.000000 0.000000 0.000000 -2.075975 3.155427 -12.777700 4.053921 -3.635056 0.196711 1.661123 -8.874311 -10.017552 0.000000 0.000000 0.000000 0.057455 3.714588 -12.303733 -0.576157 -4.232934 -0.786447 4.041241 -16.706667 2.493995 0.000000 0.000000 0.000000
